<svg xmlns="http://www.w3.org/2000/svg" width="61" height="61" fill-rule="evenodd" clip-rule="evenodd" image-rendering="optimizeQuality" shape-rendering="geometricPrecision" text-rendering="geometricPrecision" version="1" viewBox="0 0 15516 15508"><path fill="#27afb7" fill-rule="nonzero" d="M7653 12028l112 224 109 -221 -221 -3zm-329 468l-304 -608 -2 -5c-17,-35 -27,-74 -27,-116 1,-139 116,-250 255,-249l1018 15c41,-2 83,7 123,26 125,61 176,213 114,338l-293 596 726 2683c8,25 13,51 13,79 0,139 -113,253 -253,253l-1799 0 0 -1c-20,0 -41,-2 -61,-7 -135,-34 -217,-171 -184,-306l675 -2698zm444 305l-550 2201 1146 0 -596 -2201z"/><path fill="#27afb7" fill-rule="nonzero" d="M7059 15144c96 242-88 363-227 363l-6580-1-29-1c-138-16-238-141-222-279 24-207 35-412 45-614 44-849 88-1679 908-2298 0 0 70-37 79-39l4398-1342c133-40 274 35 314 168 40 133-35 274-168 314l-4352 1328c-601 478-638 1179-676 1895-6 121-13 244-21 364l5930 0-869-2161c-52-129 11-276 140-328 129-52 276 11 328 140l1001 2491zm8457 110c0 139-113 253-253 253l-6565-1c-31 0-63-6-94-18-129-52-192-199-140-328l1059-2635c52-129 199-192 328-140 129 52 192 199 140 328l-920 2289 5909 0c-52-444-90-733-200-1305-103-531-500-883-589-957l-4146-1393c-132-44-203-187-159-319 44-132 187-203 319-159l4167 1400c28 7 56 19 81 36 2 1 669 504 823 1297 128 664 161 954 226 1514l15 138zM10333 3599c80 113 53 270-60 350-113 80-270 53-350-60-33-47-76-91-128-128l-10-8c-53-36-118-67-196-90-292-89-589-5-918 87-700 199-1524 432-2890-472-55 87-134 262-218 473-212 526-391 1217-434 1502-17 114-108 199-217 214-310 62-434-64-486-298-18-81-18-165-17-257l0-1 0-6c1-179-1-421-273-538-99 162-100 683-39 1161 25 194 64 379 114 530 40 119 84 212 129 260 116-60 260-21 330 91 20 33 32 68 36 104 62 312 321 780 658 1284 485 726 1130 1517 1603 2054l1 1 1 1c92 71 409 107 739 107 335 1 655-35 744-104l11-11 1-1c253-275 563-626 876-1006 224-272 450-561 657-845-18-102 28-210 124-264 121-69 275-26 344 95l40 70 2 3c47 82 45 188-14 270-234 329-499 668-764 990-314 382-632 742-895 1027l-23 25-13 13 0 0-7 6c-176 156-637 235-1082 234-427-1-869-75-1063-227-12-8-23-18-33-29l-2-3-21-21c-481-546-1140-1355-1643-2107-301-451-548-886-671-1242-92-12-179-58-260-130l-5-4c-115-105-208-276-277-483-61-183-108-401-136-627-91-717 17-1542 371-1725 55-30 120-41 185-25 398 102 587 289 677 497 76-259 167-534 264-775 175-436 394-784 635-836l0 1c66-14 137-1 196 40 1256 880 1989 672 2609 496 402-114 766-217 1200-84 129 39 240 93 335 158l18 12c100 71 181 156 247 249zm-3365 6253l1 1 0 0m-360 352l-11-11"/><path fill="#27afb7" fill-rule="nonzero" d="M11105 1535c87 108 71 267-37 354-108 87-267 71-354-37-383-471-969-839-1615-1070-563-202-1169-301-1723-275-534 24-1015 165-1352 438-183 149-325 339-409 573-40 111-150 177-263 166l0 0c-109-11-404 61-649 276-151 132-276 323-308 586-102 828-58 1541-58 1543 0 139-113 253-253 253-139 0-253-113-253-253 0-2-48-717 62-1605 50-404 243-698 478-903 267-235 602-351 834-387 119-255 290-468 501-639 425-345 1011-521 1648-551 617-28 1290 80 1914 304 728 261 1394 682 1837 1227zM5852 9767c147 0 249 83 255 236 132 495 609 722 1346 1073l0 1 0 0 247 118c36 17 68 42 93 76 83 111 61 269-50 352l-2773 2079c-52 45-123 69-196 60-138-17-237-143-220-281 39-311 390-1394 679-2284 186-575 347-1068 369-1168-4-119 76-228 196-255 19-4 37-6 55-6l0-1zm67 943c-61 191-132 410-207 643-166 510-352 1085-485 1527l1880-1410c-523-250-924-454-1188-760z"/><path fill="#27afb7" fill-rule="nonzero" d="M9428 10009c5-146 98-234 255-234l0 1c18 0 37 2 55 6 116 26 196 130 197 244 26 80 257 628 521 1253 366 866 793 1878 866 2171 34 135-49 272-184 306-72 18-145 3-202-36l0 0-3086-2088c-116-78-146-235-68-350 30-44 70-75 116-93l171-82c766-367 1225-587 1360-1099zm563 1466c-123-291-239-567-334-797-248 320-634 528-1162 783l2075 1404c-165-409-381-921-579-1390zM14677 2197c-99-102-207-172-318-208-109-35-227-39-349-11-431 98-863 141-1292 130-434-11-867-78-1297-197-120-33-237-34-348-4l0 0c-114 31-226 96-329 194l-5 4c-106 102-189 223-246 360-59 143-93 304-96 478l-93 4225c-3 123 9 239 36 348 26 106 67 209 124 309l1282 2242 7 13c77 132 170 235 275 305 103 69 220 109 348 117 127 8 247-18 355-73 113-58 218-153 309-279l1631-2267-1-1c73-102 128-210 165-323 38-117 58-244 61-380l91-4125c4-173-26-349-79-494l0 0m-2177-957c388 10 779-29 1170-118 212-48 419-40 613 23 191 61 369 175 527 339 151 156 266 339 341 543l4 9c74 202 109 427 104 665l-91 4125c-4 187-32 361-84 523-54 167-132 321-234 463l-1-1 0 1-1631 2267c-138 192-303 338-486 433-189 98-397 142-616 128-219-13-421-82-598-202-168-114-314-272-431-472l-9-14-1282-2242c-80-139-138-285-176-439-37-151-53-310-50-479l93-4225c5-239 51-462 134-661 84-202 207-382 364-532l6-6c165-156 349-262 542-315l0 0 1 0c197-53 404-52 614 7 391 108 783 169 1174 179z"/><path fill="#27afb7" fill-rule="nonzero" d="M11612 3903c104 2 199-39 269-105l10-10c-87 27-181 40-277 38-97-2-190-20-276-51l11 12c66 70 160 114 263 116zm617 260c-162 155-384 248-627 243-244-5-463-109-618-272-155-162-248-384-243-627 1-74 12-145 29-210 19-69 46-135 79-195l0 0c24-44 61-81 109-105 125-61 276-10 338 114 31 62 78 115 136 152 56 36 122 57 193 58 71 1 138-17 196-50l0 0 1 0c58-34 108-84 142-146l1 0c24-44 62-81 110-105 125-61 275-9 336 116 31 64 56 132 70 198l-1 0c14 63 21 129 21 196l0 12 0 1c-5 243-109 462-272 618zM13750 3949l1 0 25 1c96-3 184-43 249-105l7-6 4-4c-87 27-181 40-277 38-97-2-190-20-276-51l11 12c65 69 157 112 257 116l0-1zm1 506l-1 0 0-1-4 0-1 0c-243-5-462-109-618-272-155-162-249-384-243-627 1-67 10-132 25-193l4-17c18-69 46-135 79-196l0 0c24-44 61-81 109-105 125-61 276-10 338 114 31 62 78 115 136 152 56 36 122 57 193 58 71 1 138-17 196-50l0 0 1 0c58-34 108-84 142-145l0 0c24-44 61-81 109-105 125-61 276-10 338 114 30 61 54 128 70 199 13 58 20 118 21 179l1 26 0 1-1 0 0 4 0 1c-6 237-104 450-261 605l-11 11c-155 149-366 240-597 243l-24 1zM10749 6958c38-91 91-177 158-257 13-18 29-34 47-49 110-86 268-67 354 43 101 129 267 241 475 324 215 86 472 138 747 144 276 6 535-35 753-111 205-71 372-172 479-291 13-17 28-33 46-46 110-86 268-67 354 43 68 87 122 180 158 278l-1 0 1 2c36 99 54 203 52 310-8 361-240 672-608 882-328 188-776 299-1262 289-487-10-929-142-1249-344-358-227-577-548-569-907l0-1c2-108 25-212 66-309zm438 307l-1 13 0 1c-3 170 125 337 334 469 248 157 598 259 991 267 392 8 747-78 1002-224 216-123 352-285 355-454l0-14c-123 81-265 150-419 203-272 95-591 146-929 138-338-7-655-73-923-179-153-61-291-135-410-221z"/></svg>